<?xml version="1.0" standalone="no"?>
<!DOCTYPE svg PUBLIC "-//W3C//DTD SVG 20010904//EN"
 "http://www.w3.org/TR/2001/REC-SVG-20010904/DTD/svg10.dtd">
<svg version="1.0" xmlns="http://www.w3.org/2000/svg"
 width="128.000000pt" height="128.000000pt" viewBox="0 0 128.000000 128.000000"
 preserveAspectRatio="xMidYMid meet">
<metadata>
Created by potrace 1.14, written by Peter Selinger 2001-2017
</metadata>
<g transform="translate(0.000000,128.000000) scale(0.100000,-0.100000)"
fill="#000000" stroke="none">
<path d="M45 1118 c-44 -26 -44 -24 -45 -441 l0 -399 29 -29 c16 -16 37 -29
45 -29 9 0 16 -8 16 -19 0 -31 28 -51 71 -51 53 0 79 15 79 45 l0 25 400 0
400 0 0 -25 c0 -30 26 -45 79 -45 43 0 71 20 71 51 0 11 7 19 16 19 8 0 29 13
45 29 l29 29 0 399 c-1 419 0 417 -47 441 -31 17 -1159 16 -1188 0z m1109 -44
c11 -29 6 -34 -37 -34 -24 0 -48 -5 -55 -12 -7 -7 -12 -36 -12 -66 0 -46 3
-53 18 -50 12 2 18 15 20 46 3 41 4 42 38 42 l34 0 0 -115 0 -115 -35 0 c-35
0 -35 0 -35 44 0 30 -5 46 -15 50 -21 8 -27 -11 -23 -75 l3 -54 53 -3 c43 -3
52 -6 52 -22 0 -16 -9 -19 -52 -22 -45 -3 -53 -6 -53 -23 0 -17 8 -20 53 -23
69 -4 67 -22 -3 -22 -48 0 -55 -2 -55 -20 0 -18 7 -20 55 -20 l55 0 0 -56 c0
-47 -3 -55 -17 -53 -72 7 -113 -48 -87 -116 9 -23 61 -47 85 -40 17 6 20 3 17
-17 -3 -21 -8 -23 -70 -26 l-68 -3 0 411 0 410 64 0 c49 0 65 -4 70 -16z
m-274 -344 l0 -270 -85 0 -85 0 23 37 c38 59 41 79 18 102 -20 20 -32 21 -243
21 -192 0 -224 -2 -240 -17 -24 -22 -23 -39 7 -92 30 -52 30 -51 6 -51 -21 0
-45 -23 -34 -33 3 -4 147 -7 320 -7 l313 0 0 -30 0 -30 -375 0 -375 0 0 30 c0
27 3 30 31 30 24 0 30 4 27 18 -2 10 -14 18 -31 20 l-27 3 0 263 c0 144 3 266
7 269 3 4 172 7 375 7 l368 0 0 -270z m-230 -161 c0 -6 -12 -33 -28 -60 l-27
-49 -122 0 -122 0 -30 54 c-17 29 -31 56 -31 60 0 3 81 6 180 6 125 0 180 -3
180 -11z m509 -156 c13 -25 -5 -53 -34 -53 -15 0 -26 7 -30 20 -13 41 43 70
64 33z"/>
<path d="M423 838 c-19 -25 -21 -46 -8 -72 9 -16 12 -39 8 -57 -5 -27 -3 -30
13 -27 30 5 41 53 20 89 -14 23 -15 33 -6 44 12 14 6 35 -9 35 -5 0 -13 -6
-18 -12z"/>
<path d="M530 835 c-8 -9 -10 -26 -5 -47 4 -18 7 -50 7 -70 0 -40 16 -50 38
-23 8 9 10 26 5 47 -4 18 -7 50 -7 71 0 39 -16 49 -38 22z"/>
</g>
</svg>
